HIERARCHY
ROOT Root
{
  OFFSET 0.0 0.0 0.0
  CHANNELS 6 Xposition Yposition Zposition Zrotation Yrotation Xrotation
  JOINT Hips
  {
    OFFSET 0.0 100.0 0.0
    CHANNELS 6 Xposition Yposition Zposition Zrotation Yrotation Xrotation
    JOINT Spine1
    {
      OFFSET -0.013727 5.003763 -0.053727
      CHANNELS 3 Zrotation Yrotation Xrotation
      JOINT Spine2
      {
        OFFSET -0.0 7.125301 -0.029825
        CHANNELS 3 Zrotation Yrotation Xrotation
        JOINT Chest
        {
          OFFSET -1e-06 7.550063 -0.815971
          CHANNELS 3 Zrotation Yrotation Xrotation
          JOINT Neck1
          {
            OFFSET -0.181677 26.311295 -0.553348
            CHANNELS 3 Zrotation Yrotation Xrotation
            JOINT Neck2
            {
              OFFSET -3e-06 7.709397 2.302585
              CHANNELS 3 Zrotation Yrotation Xrotation
              JOINT Head
              {
                OFFSET -5e-06 6.128916 1.953709
                CHANNELS 3 Zrotation Yrotation Xrotation
                JOINT HeadEnd
                {
                  OFFSET 0.003598 16.065403 -1.835379
                  CHANNELS 3 Zrotation Yrotation Xrotation
                }
                JOINT Jaw
                {
                  OFFSET 0.002637 0.475592 3.094941
                  CHANNELS 3 Zrotation Yrotation Xrotation
                }
                JOINT LeftEye
                {
                  OFFSET 3.206381 5.380205 7.586883
                  CHANNELS 3 Zrotation Yrotation Xrotation
                }
                JOINT RightEye
                {
                  OFFSET -3.22244 5.361869 7.558234
                  CHANNELS 3 Zrotation Yrotation Xrotation
                }
              }
            }
          }
          JOINT LeftShoulder
          {
            OFFSET 1.621652 23.237164 5.113413
            CHANNELS 3 Zrotation Yrotation Xrotation
            JOINT LeftArm
            {
              OFFSET 14.919846 2e-06 -5.502326
              CHANNELS 3 Zrotation Yrotation Xrotation
              JOINT LeftForeArm
              {
                OFFSET 28.739307 0.0 -0.002588
                CHANNELS 3 Zrotation Yrotation Xrotation
                JOINT LeftHand
                {
                  OFFSET 27.093981 -1e-06 0.002609
                  CHANNELS 3 Zrotation Yrotation Xrotation
                  JOINT LeftHandThumb1
                  {
                    OFFSET 2.276482 -1.392045 3.191413
                    CHANNELS 3 Zrotation Yrotation Xrotation
                    JOINT LeftHandThumb2
                    {
                      OFFSET 4.012836 -1.828127 1.641654
                      CHANNELS 3 Zrotation Yrotation Xrotation
                      JOINT LeftHandThumb3
                      {
                        OFFSET 2.798515 0.0 -3e-06
                        CHANNELS 3 Zrotation Yrotation Xrotation
                        JOINT LeftHandThumbEnd
                        {
                          OFFSET 3.180793 -4e-06 4e-06
                          CHANNELS 3 Zrotation Yrotation Xrotation
                        }
                      }
                    }
                  }
                  JOINT LeftHandIndex1
                  {
                    OFFSET 3.247555 -0.531998 2.296169
                    CHANNELS 3 Zrotation Yrotation Xrotation
                    JOINT LeftHandIndex2
                    {
                      OFFSET 6.364578 0.01206 0.1786
                      CHANNELS 3 Zrotation Yrotation Xrotation
                      JOINT LeftHandIndex3
                      {
                        OFFSET 3.662364 0.0 0.0
                        CHANNELS 3 Zrotation Yrotation Xrotation
                        JOINT LeftHandIndex4
                        {
                          OFFSET 2.329242 4e-06 4e-06
                          CHANNELS 3 Zrotation Yrotation Xrotation
                          JOINT LeftHandIndexEnd
                          {
                            OFFSET 2.759615 -0.180537 -0.113024
                            CHANNELS 3 Zrotation Yrotation Xrotation
                          }
                        }
                      }
                    }
                  }
                  JOINT LeftHandMiddle1
                  {
                    OFFSET 3.163495 0.240981 1.000332
                    CHANNELS 3 Zrotation Yrotation Xrotation
                    JOINT LeftHandMiddle2
                    {
                      OFFSET 6.19078 -0.259278 -1.002548
                      CHANNELS 3 Zrotation Yrotation Xrotation
                      JOINT LeftHandMiddle3
                      {
                        OFFSET 4.35652 -4e-06 -1e-06
                        CHANNELS 3 Zrotation Yrotation Xrotation
                        JOINT LeftHandMiddle4
                        {
                          OFFSET 2.996877 -8e-06 0.0
                          CHANNELS 3 Zrotation Yrotation Xrotation
                          JOINT LeftHandMiddleEnd
                          {
                            OFFSET 2.304287 -0.294569 -0.031741
                            CHANNELS 3 Zrotation Yrotation Xrotation
                          }
                        }
                      }
                    }
                  }
                  JOINT LeftHandRing1
                  {
                    OFFSET 2.882643 -0.053652 -0.322543
                    CHANNELS 3 Zrotation Yrotation Xrotation
                    JOINT LeftHandRing2
                    {
                      OFFSET 5.854541 -0.486202 -1.373841
                      CHANNELS 3 Zrotation Yrotation Xrotation
                      JOINT LeftHandRing3
                      {
                        OFFSET 4.350578 0.0 3e-06
                        CHANNELS 3 Zrotation Yrotation Xrotation
                        JOINT LeftHandRing4
                        {
                          OFFSET 2.651321 7e-06 2e-06
                          CHANNELS 3 Zrotation Yrotation Xrotation
                          JOINT LeftHandRingEnd
                          {
                            OFFSET 1.936105 0.077687 -7.1e-05
                            CHANNELS 3 Zrotation Yrotation Xrotation
                          }
                        }
                      }
                    }
                  }
                  JOINT LeftHandPinky1
                  {
                    OFFSET 2.8655 -0.310005 -1.600378
                    CHANNELS 3 Zrotation Yrotation Xrotation
                    JOINT LeftHandPinky2
                    {
                      OFFSET 5.087849 -1.331141 -1.77123
                      CHANNELS 3 Zrotation Yrotation Xrotation
                      JOINT LeftHandPinky3
                      {
                        OFFSET 3.070974 4e-06 0.0
                        CHANNELS 3 Zrotation Yrotation Xrotation
                        JOINT LeftHandPinky4
                        {
                          OFFSET 1.549672 0.0 1e-06
                          CHANNELS 3 Zrotation Yrotation Xrotation
                          JOINT LeftHandPinkyEnd
                          {
                            OFFSET 1.944893 -0.157802 0.057219
                            CHANNELS 3 Zrotation Yrotation Xrotation
                          }
                        }
                      }
                    }
                  }
                }
              }
            }
          }
          JOINT RightShoulder
          {
            OFFSET -1.380118 23.180309 5.214158
            CHANNELS 3 Zrotation Yrotation Xrotation
            JOINT RightArm
            {
              OFFSET -15.037196 1.2e-05 -5.545604
              CHANNELS 3 Zrotation Yrotation Xrotation
              JOINT RightForeArm
              {
                OFFSET -28.736639 2e-06 -0.002597
                CHANNELS 3 Zrotation Yrotation Xrotation
                JOINT RightHand
                {
                  OFFSET -27.133619 -0.0 0.002613
                  CHANNELS 3 Zrotation Yrotation Xrotation
                  JOINT RightHandThumb1
                  {
                    OFFSET -2.274032 -1.383988 3.163127
                    CHANNELS 3 Zrotation Yrotation Xrotation
                    JOINT RightHandThumb2
                    {
                      OFFSET -4.011429 -1.827466 1.640914
                      CHANNELS 3 Zrotation Yrotation Xrotation
                      JOINT RightHandThumb3
                      {
                        OFFSET -2.794935 -4e-06 -3e-06
                        CHANNELS 3 Zrotation Yrotation Xrotation
                        JOINT RightHandThumbEnd
                        {
                          OFFSET -3.183852 4e-06 1e-06
                          CHANNELS 3 Zrotation Yrotation Xrotation
                        }
                      }
                    }
                  }
                  JOINT RightHandIndex1
                  {
                    OFFSET -3.253266 -0.520057 2.282866
                    CHANNELS 3 Zrotation Yrotation Xrotation
                    JOINT RightHandIndex2
                    {
                      OFFSET -6.341917 0.012471 0.178266
                      CHANNELS 3 Zrotation Yrotation Xrotation
                      JOINT RightHandIndex3
                      {
                        OFFSET -3.654871 -8e-06 -0.0
                        CHANNELS 3 Zrotation Yrotation Xrotation
                        JOINT RightHandIndex4
                        {
                          OFFSET -2.327586 0.0 1e-06
                          CHANNELS 3 Zrotation Yrotation Xrotation
                          JOINT RightHandIndexEnd
                          {
                            OFFSET -2.76179 -0.180656 -0.113078
                            CHANNELS 3 Zrotation Yrotation Xrotation
                          }
                        }
                      }
                    }
                  }
                  JOINT RightHandMiddle1
                  {
                    OFFSET -3.168106 0.246593 1.00103
                    CHANNELS 3 Zrotation Yrotation Xrotation
                    JOINT RightHandMiddle2
                    {
                      OFFSET -6.180828 -0.258836 -1.000895
                      CHANNELS 3 Zrotation Yrotation Xrotation
                      JOINT RightHandMiddle3
                      {
                        OFFSET -4.348901 0.0 -0.0
                        CHANNELS 3 Zrotation Yrotation Xrotation
                        JOINT RightHandMiddle4
                        {
                          OFFSET -3.00024 -4e-06 -2e-06
                          CHANNELS 3 Zrotation Yrotation Xrotation
                          JOINT RightHandMiddleEnd
                          {
                            OFFSET -2.30252 -0.29437 -0.031706
                            CHANNELS 3 Zrotation Yrotation Xrotation
                          }
                        }
                      }
                    }
                  }
                  JOINT RightHandRing1
                  {
                    OFFSET -2.88569 -0.067952 -0.308858
                    CHANNELS 3 Zrotation Yrotation Xrotation
                    JOINT RightHandRing2
                    {
                      OFFSET -5.854198 -0.48613 -1.373731
                      CHANNELS 3 Zrotation Yrotation Xrotation
                      JOINT RightHandRing3
                      {
                        OFFSET -4.33881 -4e-06 -0.0
                        CHANNELS 3 Zrotation Yrotation Xrotation
                        JOINT RightHandRing4
                        {
                          OFFSET -2.654903 -4e-06 4e-06
                          CHANNELS 3 Zrotation Yrotation Xrotation
                          JOINT RightHandRingEnd
                          {
                            OFFSET -1.933568 0.077527 -5.2e-05
                            CHANNELS 3 Zrotation Yrotation Xrotation
                          }
                        }
                      }
                    }
                  }
                  JOINT RightHandPinky1
                  {
                    OFFSET -2.866425 -0.342796 -1.584145
                    CHANNELS 3 Zrotation Yrotation Xrotation
                    JOINT RightHandPinky2
                    {
                      OFFSET -5.091371 -1.332055 -1.772385
                      CHANNELS 3 Zrotation Yrotation Xrotation
                      JOINT RightHandPinky3
                      {
                        OFFSET -3.062664 -4e-06 1e-06
                        CHANNELS 3 Zrotation Yrotation Xrotation
                        JOINT RightHandPinky4
                        {
                          OFFSET -1.546529 4e-06 -2e-06
                          CHANNELS 3 Zrotation Yrotation Xrotation
                          JOINT RightHandPinkyEnd
                          {
                            OFFSET -1.945119 -0.157718 0.057211
                            CHANNELS 3 Zrotation Yrotation Xrotation
                          }
                        }
                      }
                    }
                  }
                }
              }
            }
          }
        }
      }
    }
    JOINT LeftLeg
    {
      OFFSET 10.043214 -8.434526 2.595655
      CHANNELS 3 Zrotation Yrotation Xrotation
      JOINT LeftShin
      {
        OFFSET -1e-06 -43.221752 -0.802913
        CHANNELS 3 Zrotation Yrotation Xrotation
        JOINT LeftFoot
        {
          OFFSET 1e-06 -42.155094 -3.481523
          CHANNELS 3 Zrotation Yrotation Xrotation
          JOINT LeftToeBase
          {
            OFFSET 0.0 -5.059472 13.231529
            CHANNELS 3 Zrotation Yrotation Xrotation
            JOINT LeftToeEnd
            {
              OFFSET -0.009607 -1.647619 6.513017
              CHANNELS 3 Zrotation Yrotation Xrotation
            }
          }
        }
      }
    }
    JOINT RightLeg
    {
      OFFSET -10.047278 -8.29526 2.620317
      CHANNELS 3 Zrotation Yrotation Xrotation
      JOINT RightShin
      {
        OFFSET 1e-06 -43.362206 -0.805556
        CHANNELS 3 Zrotation Yrotation Xrotation
        JOINT RightFoot
        {
          OFFSET 2e-06 -42.117393 -3.478398
          CHANNELS 3 Zrotation Yrotation Xrotation
          JOINT RightToeBase
          {
            OFFSET -0.0 -5.079609 13.284196
            CHANNELS 3 Zrotation Yrotation Xrotation
            JOINT RightToeEnd
            {
              OFFSET 0.009532 -1.634378 6.460591
              CHANNELS 3 Zrotation Yrotation Xrotation
            }
          }
        }
      }
    }
  }
}
MOTION
Frames: 4
Frame Time: 0.03333333333333333
0.0 0.0 0.0 0.0 -0.0 0.0 0.196855 100.045303 -0.600832 -0.379335 0.006992 -3.880591 0.676055 -0.34764 -2.451329 -0.345886 -1.02602 -5.979541 0.033657 -2.842602 14.505495 1.762496 2.161391 0.928218 -0.669132 0.91609 -3.547043 -2.408846 2.191338 -0.678754 7.7e-05 -2.2e-05 6e-06 0.014634 -0.113393 -0.042768 0.756314 -3.820056 -10.574071 -0.729356 3.600439 -10.544219 -9.66473 -7.252089 13.643984 -60.292156 -8.320173 27.360451 0.00263 -38.046814 0.346482 -8.181521 3.201349 -9.404003 -5.882113 9.861296 0.70259 -10.936885 -0.360575 7.156213 0.0 8.774834 1e-06 -16.248859 18.12958 6.091259 -1.844035 2.498508 -2.507279 -10.163611 4.67895 4.621114 -20.976048 -4e-06 2e-06 -21.226315 2.451698 -3.594004 2e-06 -5e-06 -0.0 -1.362683 2.240801 -0.746325 -21.33494 0.584911 3.008327 -13.82123 -2e-06 2e-06 -23.887196 -0.249077 -0.839485 -60.325497 2.648556 -1.204344 -0.294025 1.679688 0.833258 -14.218224 0.093216 1.30058 -34.212086 -0.287563 0.967169 -20.033239 0.96454 1.212845 1e-06 1e-06 0.0 -3.440392 0.788234 0.501656 -15.928206 -3.167312 2.999712 -6.338833 -0.0 -0.0 -18.12347 3.648186 -4.905675 -3e-06 1e-06 -1e-06 12.908707 7.855077 13.985761 62.380856 8.005566 16.19055 -0.117633 32.103577 0.061532 4.358279 -2.687317 -7.208291 2.243543 -5.255038 -3.180159 14.2829 -0.826593 6.952505 -4e-06 -12.69061 1e-06 15.93491 -17.830833 2.659065 1.665668 -1.955922 -2.8783 4.7278 -4.170588 4.993925 11.020534 4e-06 -2e-06 12.109059 -3.735716 -2.866785 -1e-06 0.0 0.0 1.291987 -1.92855 -1.49809 14.800139 0.56747 3.865609 14.24258 -1.341735 -6.660662 19.631983 0.143928 -0.648245 49.606983 -0.429985 -6.523676 0.353029 -1.511151 -0.031941 20.222803 3.684313 2.316629 18.787287 7e-06 -1e-06 10.751633 -0.479868 1.397906 1e-06 0.0 -1e-06 3.273809 0.305947 -0.580111 21.486828 11.830383 2.266132 8.16293 2e-06 -2e-06 18.399088 -3.798983 -4.940577 4e-06 1e-06 -1e-06 1.870981 -0.087168 0.844439 0.030208 0.132383 9.312353 -4.301137 3.061192 -6.539963 1.666146 -1.92326 -1.27381 0.0 0.0 2e-06 -0.923945 1.481447 2.75481 -0.02279 -0.047963 6.241967 2.399939 -10.100979 -5.505141 -1.423843 1.09902 -0.793101 0.0 0.0 -1e-06 
0.0 0.0 0.0 0.0 -0.0 0.0 0.196746 100.063705 -0.595793 -0.388276 -0.087639 -3.766283 0.637907 -0.388556 -2.481792 -0.349578 -1.006992 -5.97098 0.005131 -2.895372 14.594248 1.900793 2.11282 0.663323 -0.633368 0.979935 -3.533343 -2.473044 2.223381 -1.047381 7.7e-05 -2.2e-05 6e-06 0.011699 -0.097272 -0.038594 0.753927 -3.803454 -10.559507 -0.732538 3.617103 -10.530181 -9.547092 -7.302189 13.756894 -59.481159 -7.82392 27.220953 0.052538 -40.695496 0.29285 -8.67155 3.480278 -9.204837 -5.88211 9.86129 0.702591 -10.936877 -0.360575 7.156209 0.0 8.774829 0.0 -16.240463 18.141005 6.094985 -1.844032 2.498505 -2.507278 -10.163605 4.678947 4.621112 -20.976034 -2e-06 2e-06 -21.226299 2.451698 -3.594001 2e-06 -6e-06 -1e-06 -1.362683 2.240799 -0.746323 -21.334929 0.584912 3.008323 -13.821222 -2e-06 1e-06 -23.887186 -0.249079 -0.839485 -60.244156 2.655044 -1.099121 -0.294024 1.679688 0.833256 -14.218216 0.093216 1.300581 -34.212067 -0.287564 0.967169 -20.033222 0.964537 1.212843 0.0 -0.0 0.0 -3.44039 0.788233 0.501656 -15.928198 -3.167311 2.999708 -6.338829 -0.0 0.0 -18.123457 3.648185 -4.905674 -4e-06 1e-06 -1e-06 13.062119 7.621338 14.110754 61.757648 7.58731 16.339077 -0.171555 35.122936 -0.002348 4.405439 -3.738159 -6.003061 2.243542 -5.255037 -3.180159 14.282898 -0.826595 6.952507 -4e-06 -12.690606 2e-06 15.908867 -17.79479 2.634591 1.665667 -1.955922 -2.878299 4.7278 -4.170588 4.993926 11.020529 3e-06 -2e-06 12.109056 -3.735715 -2.866785 -0.0 0.0 -0.0 1.291986 -1.92855 -1.498091 14.800136 0.567468 3.865612 14.242577 -1.341736 -6.66066 19.631973 0.143925 -0.648244 49.692627 -0.421999 -6.488914 0.353029 -1.511151 -0.031941 20.222799 3.684311 2.316632 18.787283 5e-06 -1e-06 10.751633 -0.47987 1.397907 1e-06 0.0 1e-06 3.273808 0.305948 -0.58011 21.486824 11.830376 2.266134 8.16293 3e-06 -1e-06 18.399088 -3.798986 -4.940574 3e-06 1e-06 -2e-06 1.892019 -0.008233 0.81582 0.011188 0.103052 9.15331 -4.46757 3.12987 -6.446076 1.663677 -1.941731 -1.318717 0.0 0.0 2e-06 -0.893588 1.643438 2.720479 -0.023201 -0.021878 6.042348 2.372736 -10.147767 -5.394145 -1.425758 1.116149 -0.7652 0.0 0.0 -1e-06 
0.0 0.0 0.0 0.0 -0.0 0.0 0.193547 100.061592 -0.597981 -0.378975 -0.220153 -3.6532 0.588136 -0.423015 -2.489602 -0.356615 -1.015986 -5.966405 -0.022611 -2.930352 14.710513 2.079731 2.083332 0.325161 -0.604137 1.044724 -3.562865 -2.573755 2.237508 -1.470703 7.7e-05 -2.2e-05 6e-06 0.009922 -0.096937 -0.034834 0.751317 -3.801906 -10.565991 -0.733052 3.616428 -10.536975 -9.290825 -7.360996 13.836721 -58.382607 -7.070488 27.030674 0.139389 -44.716511 0.241331 -9.400807 3.869553 -9.03319 -5.882109 9.861292 0.702589 -10.936878 -0.360575 7.156212 1e-06 8.774831 -2e-06 -16.177572 18.166624 6.123481 -1.844033 2.498506 -2.507279 -10.163607 4.678946 4.621113 -20.97604 -3e-06 3e-06 -21.226301 2.451698 -3.594001 1e-06 -6e-06 -1e-06 -1.362683 2.2408 -0.746324 -21.334929 0.584908 3.008326 -13.821223 -3e-06 2e-06 -23.887184 -0.24908 -0.839483 -60.126621 2.682697 -1.054951 -0.294025 1.679688 0.833255 -14.218218 0.093213 1.300582 -34.212074 -0.287564 0.967173 -20.033228 0.964535 1.212844 1e-06 1e-06 -1e-06 -3.44039 0.788234 0.501655 -15.9282 -3.167311 2.99971 -6.33883 -0.0 1e-06 -18.123459 3.648184 -4.905672 -5e-06 1e-06 -2e-06 13.137238 7.348197 14.237403 60.82045 6.839004 16.766731 -0.295641 40.008598 -0.123932 4.27072 -5.32253 -4.010329 2.243542 -5.255039 -3.180156 14.282892 -0.826596 6.952504 1e-06 -12.690607 -1e-06 15.827519 -17.701508 2.652025 1.665666 -1.955922 -2.878299 4.7278 -4.170589 4.993926 11.020526 2e-06 -0.0 12.109052 -3.735719 -2.866784 -0.0 -0.0 -0.0 1.291985 -1.928549 -1.498089 14.800129 0.567466 3.86561 14.242569 -1.341741 -6.660659 19.631966 0.143921 -0.648245 49.684586 -0.44399 -6.466695 0.353029 -1.511152 -0.03194 20.222788 3.684308 2.316631 18.78727 0.0 2e-06 10.751627 -0.479871 1.397905 -0.0 1e-06 1e-06 3.273806 0.305947 -0.580111 21.486813 11.830376 2.266136 8.162928 1e-06 0.0 18.39908 -3.798991 -4.940576 5e-06 1e-06 -0.0 1.898382 0.123457 0.667894 0.005061 0.086218 9.239346 -4.588068 3.169715 -6.540812 1.659897 -1.939003 -1.335816 0.0 0.0 2e-06 -0.889758 1.824064 2.448113 -0.017093 0.00507 6.308161 2.412156 -10.243787 -5.495717 -1.422811 1.146348 -0.706423 0.0 0.0 -1e-06 
0.0 0.0 0.0 0.0 -0.0 0.0 0.196868 100.057579 -0.618512 -0.367225 -0.375577 -3.524272 0.5308 -0.447684 -2.459498 -0.354748 -1.027095 -5.969514 -0.03938 -2.98186 14.817019 2.249468 2.049812 -0.066849 -0.570375 1.15846 -3.599899 -2.66706 2.295795 -2.048362 7.7e-05 -2.2e-05 6e-06 0.00844 -0.101428 -0.030942 0.748727 -3.806249 -10.58011 -0.732921 3.611579 -10.553605 -8.86995 -7.414997 13.929173 -57.03825 -6.224279 26.793842 0.352075 -49.97057 0.102175 -10.207068 4.206845 -8.720459 -5.882104 9.861284 0.702589 -10.93687 -0.360577 7.156202 1e-06 8.774824 -2e-06 -16.046389 18.16169 6.155317 -1.844033 2.498504 -2.507277 -10.163597 4.678942 4.621105 -20.976021 -6e-06 1e-06 -21.226286 2.451694 -3.594 1e-06 -6e-06 -1e-06 -1.362681 2.240798 -0.746323 -21.334911 0.584907 3.008323 -13.821213 -3e-06 1e-06 -23.887167 -0.249082 -0.839483 -59.937008 2.696195 -1.024876 -0.294025 1.679687 0.833257 -14.218207 0.093213 1.300578 -34.212048 -0.28757 0.967169 -20.033211 0.964534 1.212844 1e-06 1e-06 0.0 -3.440388 0.788232 0.501655 -15.928185 -3.16731 2.999705 -6.338824 -1e-06 0.0 -18.123444 3.648178 -4.905672 -5e-06 1e-06 -2e-06 13.068548 7.028749 14.382026 59.545971 5.843633 17.481739 -0.550069 46.865627 -0.33657 4.11721 -7.351101 -1.013186 2.243542 -5.255037 -3.180156 14.282891 -0.826595 6.9525 -1e-06 -12.690604 -2e-06 15.660909 -17.586807 2.710364 1.665666 -1.955922 -2.878298 4.727799 -4.170588 4.993921 11.020526 2e-06 -2e-06 12.109052 -3.735717 -2.866785 1e-06 -0.0 -0.0 1.291986 -1.928548 -1.498089 14.800127 0.567467 3.865606 14.24257 -1.341739 -6.660659 19.631966 0.143925 -0.648245 49.548817 -0.494336 -6.451305 0.35303 -1.51115 -0.03194 20.222788 3.684309 2.316628 18.787271 3e-06 -1e-06 10.751627 -0.479868 1.397904 1e-06 1e-06 0.0 3.273807 0.305947 -0.580112 21.486813 11.830376 2.266135 8.162928 1e-06 -1e-06 18.399084 -3.798984 -4.940576 5e-06 1e-06 -2e-06 1.904277 0.343255 0.468199 0.007976 0.068646 9.376218 -4.670479 3.207251 -6.638616 1.655895 -1.920215 -1.351728 -0.0 0.0 2e-06 -0.901429 1.961508 2.100596 -0.015182 0.026045 6.658097 2.465811 -10.280764 -5.616518 -1.420068 1.164348 -0.698989 -0.0 0.0 -1e-06 
